<?xml version="1.0" encoding="UTF-8"?>
<svg width="24px" height="24px" viewBox="0 0 24 24" version="1.1" xmlns="http://www.w3.org/2000/svg">
    <path fill="white" d="M15.75 4.49c-.857.187-1.752.547-2.577 1.072-.28.173-.432.5-.432.86 0 .547.432 1.013.995 1.013.17 0 .34-.053.495-.16 1.196-.78 2.963-1.12 4.473-.78.17.04.34.053.495.053.563 0 .995-.467.995-1.013 0-.5-.34-.92-.825-1.013-1.196-.267-2.45-.24-3.619-.033zm-.17 2.867c-.432.093-.825.36-1.055.733-.23.373-.298.813-.17 1.24.128.426.432.786.826 1.013.393.226.856.293 1.3.186.445-.107.826-.373 1.057-.746.23-.374.297-.814.17-1.24-.256-.854-1.176-1.374-2.128-1.187zm7.925 3.974c-.445-1.347-1.112-2.574-1.97-3.654-1.772-2.227-4.35-3.814-7.157-4.387-1.197-.24-2.42-.293-3.63-.16-2.9.307-5.527 1.64-7.384 3.734-1.857 2.093-2.9 4.76-2.9 7.52 0 3.12 1.24 6.08 3.52 8.28 2.279 2.2 5.357 3.427 8.565 3.427 1.687 0 3.36-.333 4.9-.987 1.54-.653 2.937-1.613 4.09-2.813 1.154-1.2 2.067-2.613 2.68-4.173.614-1.56.927-3.214.927-4.88 0-.64-.068-1.267-.17-1.894-.087-.547-.267-1.066-.47-1.013zm-2.662 7.08c-.688 2.253-2.95 3.92-5.527 4.493-1.325.293-2.69.333-4.03.107-1.325-.227-2.61-.72-3.745-1.44-2.289-1.454-3.772-3.787-3.772-6.44 0-4.28 4.37-7.747 9.77-7.747 2.849 0 5.442 1.134 7.116 2.947 1.674 1.813 2.332 4.186 1.665 6.533-.667 2.347.187 1.547-.477 1.547z"/>
</svg>
